<svg width="36" height="57" viewBox="0 0 36 57" fill="none" xmlns="http://www.w3.org/2000/svg">
<path d="M34.4739 32.5116C34.4054 32.321 34.3245 32.135 34.2317 31.9549L34.2434 31.9806C33.9033 31.1864 31.1692 25.9044 30.7127 25.1847L18.0177 0.688965L4.9989 25.7856C4.5564 26.5076 2.12965 31.1887 1.79428 31.9806L1.66153 32.274C0.798252 34.3851 0.35676 36.6447 0.361984 38.9255C0.361984 43.6087 2.22238 48.1 5.53389 51.4115C8.84541 54.7231 13.3368 56.5835 18.02 56.5835C22.7032 56.5835 27.1946 54.7231 30.5061 51.4115C33.8176 48.1 35.678 43.6087 35.678 38.9255V38.9115L35.6803 38.6763C35.6803 36.4521 35.2378 34.3305 34.4343 32.3974L34.4739 32.5069V32.5116ZM18.027 51.9698C15.7681 51.9703 13.548 51.3825 11.5853 50.2643C9.62261 49.1461 7.98495 47.536 6.83357 45.5926C5.68218 43.6492 5.05676 41.4394 5.01888 39.1809C4.98099 36.9223 5.53195 34.6928 6.61751 32.7119L6.58258 32.7794C6.41222 33.6863 6.32646 34.6071 6.32639 35.5299V35.5322C6.32886 39.6674 7.97265 43.6325 10.8967 46.5565C13.8207 49.4805 17.7858 51.1243 21.921 51.1268C22.1841 51.1268 22.4659 51.1268 22.7268 51.1128C21.2387 51.6864 19.6567 51.977 18.0619 51.9698H18.0083H18.027Z" fill="#FF4747"/>
</svg>
